# xmcd
#
# Track frame offsets:
#	150
#	12857
#	24960
#	35870
#	47427
#	60092
#	72247
#	86385
#	98577
#	109010
#
# Disc length: 1589
#
# Revision: 2
# Processed by: cddbd v1.5.1PL0 Copyright (c) Steve Scherf et al.
# Submitted via: audiograbber 1.83.01
# Normalized: r1:DSETVAR2
#
DISCID=6a06330a
DTITLE=Various Artist - 25 Years of R&B,1968
DYEAR=1968
DGENRE=R&B
TTITLE0=Aretha Franklin - Chain of Fools
TTITLE1=Archie Bell - Tighten Up
TTITLE2=Wilson Pickett - I'm a Midnight Mover
TTITLE3=Clarance Carter - Slip Away
TTITLE4=Sam and Dave - I Thank You
TTITLE5=Otis Redding - Dock of the Bay
TTITLE6=Joe Tex - Men Are Getting Scarce
TTITLE7=Eddie Floyd - I've Never Found a Girl
TTITLE8=Aretha Franklin - Think
TTITLE9=Clarence Carter - Too Weak To Fight
EXTD=
EXTT0=
EXTT1=
EXTT2=
EXTT3=
EXTT4=
EXTT5=
EXTT6=
EXTT7=
EXTT8=
EXTT9=
PLAYORDER=
